/* XPM */
static char *test[] = {
/* columns rows colors chars-per-pixel */
"30 30 2 1",
". c #FF7F00",
"= c #000000",
/* pixels */
"==============================",
"==============================",
"==============================",
"==============================",
"==============================",
"==============================",
"==============================",
"==============================",
"==============================",
"==============================",
"==========.=======.===========",
"==========..=====..===========",
"==========.........===========",
"==========..=...=..===========",
"==========.===.===.===========",
"==========..=...=..===========",
"==========.........===========",
"==========..=====..===========",
"==========.=======.===========",
"==============================",
"==============================",
"==============================",
"==============================",
"==============================",
"==============================",
"==============================",
"==============================",
"==============================",
"==============================",
"==============================",
};
