/* XPM */
static char *test[] = {
/* columns rows colors chars-per-pixel */
"30 30 2 1",
". c #FFFFFF",
"= c #000000",
/* pixels */
"..............................",
".=============================",
".=============================",
".=============================",
".=============================",
".=============================",
".=============================",
".=============================",
".=============================",
".=============================",
".=============================",
".=============================",
".=============================",
".=============================",
".=============================",
".=============================",
".=============================",
".=============================",
".=============================",
".=============================",
".=============================",
".=============================",
".=============================",
".=============================",
".=============================",
".=============================",
".=============================",
".=============================",
".=============================",
".=============================",
};
