/* XPM */
static char *test[] = {
/* columns rows colors chars-per-pixel */
"150 50 4 1",
". c #FF0000",
"= c #00FF00",
"/ c #0000FF",
"& c #F0F0F0",
/* pixels */
"//////////////////////////////////////////////////////////////////////////////////////////////////////////////////////////////////////////////////////",
"/====================================================================================================================================================/",
"/====================================================================================================================================================/",
"/====================================================================================================================================================/",
"/====================================================================================================================================================/",
"/====================================================================================================================================================/",
"/====================================================================================================================================================/",
"/====================================================================================================================================================/",
"/====================================================================================================================================================/",
"/====================================================================================================================================================/",
"/====================================================================================================================================================/",
"/====================================================================================================================================================/",
"/====================================================================================================================================================/",
"/====================================================================================================================================================/",
"/====&&&&&&&&&&&&&&&&&&&&====&&&&&&&&&&&&&&&&&&&&====&&&&&&&&&&&&&&&&&&&&====&&&&&&&&&&&&&&&&&&&&====&&&&&&&&&&&&&&&&&&&&====&&&&============&&&&====/",
"/====&..................&====&..................&====&..................&====&..................&====&..................&====&..&============&..&====/",
"/====&..................&====&..................&====&..................&====&..................&====&..................&====&..&============&..&====/",
"/====&..&&&&&&&&&&&&&&..&====&..&&&&&&&&&&&&&&..&====&&&&&&&&&..&&&&&&&&&====&&&&&&&&&..&&&&&&&&&====&..&&&&&&&&&&&&&&..&====&..&============&..&====/",
"/====&..&============&..&====&..&============&..&============&..&====================&..&============&..&============&..&====&..&&&&&========&..&====/",
"/====&..&============&..&====&..&============&..&============&..&====================&..&============&..&============&..&====&......&========&..&====/",
"/====&..&============&..&====&..&============&..&============&..&====================&..&============&..&============&..&====&......&========&..&====/",
"/====&..&============&..&====&..&============&..&============&..&====================&..&============&..&============&..&====&..&&&&&========&..&====/",
"/====&..&============&..&====&..&&&&&&&&&&&&&&..&============&..&====================&..&============&..&============&..&====&..&====&&&&====&..&====/",
"/====&..&============&..&====&..................&============&..&====================&..&============&..&============&..&====&..&====&..&====&..&====/",
"/====&..&============&..&====&..................&============&..&====================&..&============&..&============&..&====&..&====&..&====&..&====/",
"/====&..&============&..&====&..&&&&&&&&&&&&&&&&&============&..&====================&..&============&..&============&..&====&..&====&&&&====&..&====/",
"/====&..&============&..&====&..&============================&..&====================&..&============&..&============&..&====&..&========&&&&&..&====/",
"/====&..&============&..&====&..&============================&..&====================&..&============&..&============&..&====&..&========&......&====/",
"/====&..&============&..&====&..&============================&..&====================&..&============&..&============&..&====&..&========&......&====/",
"/====&..&============&..&====&..&============================&..&====================&..&============&..&============&..&====&..&========&&&&&..&====/",
"/====&..&&&&&&&&&&&&&&..&====&..&============================&..&============&&&&&&&&&..&&&&&&&&&====&..&&&&&&&&&&&&&&..&====&..&============&..&====/",
"/====&..................&====&..&============================&..&============&..................&====&..................&====&..&============&..&====/",
"/====&..................&====&..&============================&..&============&..................&====&..................&====&..&============&..&====/",
"/====&&&&&&&&&&&&&&&&&&&&====&&&&============================&&&&============&&&&&&&&&&&&&&&&&&&&====&&&&&&&&&&&&&&&&&&&&====&&&&============&&&&====/",
"/====================================================================================================================================================/",
"/====================================================================================================================================================/",
"/====================================================================================================================================================/",
"/====================================================================================================================================================/",
"/====================================================================================================================================================/",
"/====================================================================================================================================================/",
"/====================================================================================================================================================/",
"/====================================================================================================================================================/",
"/====================================================================================================================================================/",
"/====================================================================================================================================================/",
"/====================================================================================================================================================/",
"/====================================================================================================================================================/",
"/====================================================================================================================================================/",
"/====================================================================================================================================================/",
"/====================================================================================================================================================/",
"//////////////////////////////////////////////////////////////////////////////////////////////////////////////////////////////////////////////////////",
};
