/* XPM */
static char *test[] = {
/* columns rows colors chars-per-pixel */
"30 30 5 1",
". c #FF0000",
"= c #000000",
"! c #0000FF",
"? c #00FF00",
"& c #F0F0F0",
/* pixels */
"===........................===",
"===........................===",
"===........................===",
"===...??????????????????...===",
"===...??????????????????...===",
"===...??????????????????...===",
"===...???&&&&&&&&&&&&???...===",
"===...???&&&&&&&&&&&&???...===",
"===...???&&&&&&&&&&&&???...===",
"===...??????&&&?????????...===",
"===...??????&&&?????????...===",
"===...??????&&&?????????...===",
"===...??????????????????...===",
"===...??????????????????...===",
"===...??????????????????...===",
"===........................===",
"===........................===",
"===........................===",
"===..................!!!...===",
"===..................!!!...===",
"===..................!!!...===",
"===........................===",
"===........................===",
"===........................===",
"===........................===",
"===........................===",
"===........................===",
"===........................===",
"===........................===",
"===........................===",
};