/* XPM */
static char *test[] = {
/* columns rows colors chars-per-pixel */
"120 30 5 1",
"! c #FF0000",
"? c #00FF00",
"& c #0000FF",
". c #FFFFFF",
"= c #000000",
/* pixels */
"========================================================================================================================",
"========================================================================================================================",
"========================================================================================================================",
"========================================================================================================================",
"========================================================================================================================",
"========================================================================================================================",
"==========.....=.===.===.=...=...=...===.=.=...=...=...=================================================================",
"==========.===.=.===.=.=.=...=...=...==.==.=...=...=...=================================================================",
"==========.....==.=.====.=...=...=...==.==.=...=...=...=================================================================",
"==========.======.=.==.=.=...=...=...==.==.=...=...=...=================================================================",
"==========.=======.=====.=...=...=...=.===.=...=...=...=================================================================",
"========================================================================================================================",
"==========.....................................................................................................=========",
"==========.!!!!!!!!!!!!!!!!!!!!!!!!!!!!!!!!!!!!!!!!!!!!!!!!!!!!!!!!!!!!!!!!!!!!!!!!!!!!!!!!!!!!!!!!!!!!!!!!!!!.=========",
"=========..!!!!!!!!!!!!!!!!!!!!!!!!!!!!!!!!!!!!!!!!!!!!!!!!!!!!!!!!!!!!!!!!!!!!!!!!!!!!!!!!!!!!!!!!!!!!!!!!!!!..========",
"=========..!!!!!!!!!!!!!!!!!!!!!!!!!!!!!!!!!!!!!!!!!!!!!!!!!!!!!!!!!!!!!!!!!!!!!!!!!!!!!!!!!!!!!!!!!!!!!!!!!!!..========",
"========...!!!!!!!!!!!!!!!!!!!!!!!!!!!!!!!!!!!!!!!!!!!!!!!!!!!!!!!!!!!!!!!!!!!!!!!!!!!!!!!!!!!!!!!!!!!!!!!!!!!...=======",
"========...???????????????????????????????????????????????????????????????????????????????????????????????????...=======",
"=======....???????????????????????????????????????????????????????????????????????????????????????????????????....======",
"=======....???????????????????????????????????????????????????????????????????????????????????????????????????....======",
"========...???????????????????????????????????????????????????????????????????????????????????????????????????...=======",
"========...&&&&&&&&&&&&&&&&&&&&&&&&&&&&&&&&&&&&&&&&&&&&&&&&&&&&&&&&&&&&&&&&&&&&&&&&&&&&&&&&&&&&&&&&&&&&&&&&&&&...=======",
"=========..&&&&&&&&&&&&&&&&&&&&&&&&&&&&&&&&&&&&&&&&&&&&&&&&&&&&&&&&&&&&&&&&&&&&&&&&&&&&&&&&&&&&&&&&&&&&&&&&&&&..========",
"=========..&&&&&&&&&&&&&&&&&&&&&&&&&&&&&&&&&&&&&&&&&&&&&&&&&&&&&&&&&&&&&&&&&&&&&&&&&&&&&&&&&&&&&&&&&&&&&&&&&&&..========",
"==========.&&&&&&&&&&&&&&&&&&&&&&&&&&&&&&&&&&&&&&&&&&&&&&&&&&&&&&&&&&&&&&&&&&&&&&&&&&&&&&&&&&&&&&&&&&&&&&&&&&&.=========",
"==========.....................................................................................................=========",
"========================================================================================================================",
"========================================================================================================================",
"========================================================================================================================",
"========================================================================================================================",
};