/* XPM */
static char *test[] = {
/* columns rows colors chars-per-pixel */
"120 30 5 1",
"! c #7F7F7F",
"? c #BFBFBF",
"& c #3F3F3F",
". c #FFFFFF",
"= c #000000",
/* pixels */
"========================================================================================================================",
"========================================================================================================================",
"========================================================================================================================",
"========================================================================================================================",
"========================================================================================================================",
"========================================================================================================================",
"==========.....=.....=.===.=====...=...=...=============================================================================",
"==========.=====.===.=..=..=.=====.===.===.=============================================================================",
"==========...===.....=.=.=.======..==..==..=============================================================================",
"==========.=====.=====.===.=.===========================================================================================",
"==========.....=.=====.===.======.===.===.==============================================================================",
"========================================================================================================================",
"==========.....................................................................................................=========",
"==========.???????????????????????????????????????!!!!!!!!!!!!!!!!!!!!!!!!!!!!!!!!&&&&&&&&&&&&&&&&&&&&&&&&&&&&.=========",
"=========..??????????????????????????????????????!!!!!!!!!!!!!!!!!!!!!!!!!!!!!!!!&&&&&&&&&&&&&&&&&&&&&&&&&&&&&..========",
"=========..?????????????????????????????????????!!!!!!!!!!!!!!!!!!!!!!!!!!!!!!!!&&&&&&&&&&&&&&&&&&&&&&&&&&&&&&..========",
"========...????????????????????????????????????!!!!!!!!!!!!!!!!!!!!!!!!!!!!!!!!&&&&&&&&&&&&&&&&&&&&&&&&&&&&&&&...=======",
"========...???????????????????????????????????!!!!!!!!!!!!!!!!!!!!!!!!!!!!!!!!&&&&&&&&&&&&&&&&&&&&&&&&&&&&&&&&...=======",
"=======....??????????????????????????????????!!!!!!!!!!!!!!!!!!!!!!!!!!!!!!!!&&&&&&&&&&&&&&&&&&&&&&&&&&&&&&&&&....======",
"=======....?????????????????????????????????!!!!!!!!!!!!!!!!!!!!!!!!!!!!!!!!&&&&&&&&&&&&&&&&&&&&&&&&&&&&&&&&&&....======",
"========...????????????????????????????????!!!!!!!!!!!!!!!!!!!!!!!!!!!!!!!!&&&&&&&&&&&&&&&&&&&&&&&&&&&&&&&&&&&...=======",
"========...???????????????????????????????!!!!!!!!!!!!!!!!!!!!!!!!!!!!!!!!&&&&&&&&&&&&&&&&&&&&&&&&&&&&&&&&&&&&...=======",
"=========..??????????????????????????????!!!!!!!!!!!!!!!!!!!!!!!!!!!!!!!!&&&&&&&&&&&&&&&&&&&&&&&&&&&&&&&&&&&&&..========",
"=========..?????????????????????????????!!!!!!!!!!!!!!!!!!!!!!!!!!!!!!!!&&&&&&&&&&&&&&&&&&&&&&&&&&&&&&&&&&&&&&..========",
"==========.????????????????????????????!!!!!!!!!!!!!!!!!!!!!!!!!!!!!!!!&&&&&&&&&&&&&&&&&&&&&&&&&&&&&&&&&&&&&&&.=========",
"==========.....................................................................................................=========",
"========================================================================================================================",
"========================================================================================================================",
"========================================================================================================================",
"========================================================================================================================",
};