/* XPM */
static char *test[] = {
/* columns rows colors chars-per-pixel */
"30 30 2 1",
". c #7F7F7F",
"= c #000000",
/* pixels */
"==============================",
"==============================",
"==============================",
"==============================",
"==============================",
"==============..==============",
"============......============",
"==========....==....==========",
"========....======....========",
"========..==========..========",
"=======..============..=======",
"=======..==..====..==..=======",
"======..===..====..===..======",
"======..==============..======",
"=====..====..=..=..====..=====",
"=====..====..=..=..====..=====",
"======..==============..======",
"======..===..====..===..======",
"=======..==..====..==..=======",
"=======..============..=======",
"========..==========..========",
"========....======....========",
"==========....==....==========",
"============......============",
"==============..==============",
"==============================",
"==============================",
"==============================",
"==============================",
"==============================",
};
