/* XPM */
static char *test[] = {
/* columns rows colors chars-per-pixel */
"150 80 2 1",
". c #000000",
"= c #DCDCDC",
/* pixels */
"======================================================================================================================================================",
"======================================================================================================================================================",
"======================================================================================================================================================",
"========================================================================......========================================================================",
"===================================================================......====......===================================================================",
"===============================================================.....==============.....===============================================================",
"===========================================================.....======================.....===========================================================",
"========================================================....==============================....========================================================",
"=====================================================....====================================....=====================================================",
"===================================================...==========================================...===================================================",
"=================================================...==============================================...=================================================",
"================================================..=================................=================..================================================",
"===============================================..==================..============..==================..===============================================",
"==============================================..===================..============..===================..==============================================",
"=============================================..====================..============..====================..=============================================",
"=============================================.=====================..============..=====================.=============================================",
"============================================..=====================..============..=====================..============================================",
"============================================.======================..============..======================.============================================",
"===========================================..======================..============..======================..===========================================",
"===========================================.=======================..============..=======================.===========================================",
"===========================================.=======================..============..=======================.===========================================",
"==========================================..=======================..============..=======================..==========================================",
"==========================================.========================..============..========================.==========================================",
"==========================================.========================..============..========================.==========================================",
"=========================================..========================..============..========================..=========================================",
"=========================================.=========================..============..=========================.=========================================",
"=========================================.=========================..============..=========================.=========================================",
"=========================================.=========================..============..=========================.=========================================",
"========================================..=========================..============..=========================..========================================",
"========================================.==========================..============..==========================.========================================",
"========================================.==========================..============..==========================.========================================",
"========================================.==========================..============..==========================.========================================",
"=======================================..==========================..============..==========================..=======================================",
"=======================================.===========================..============..===========================.=======================================",
"=======================================.===========================..============..===========================.=======================================",
"=======================================.===========================..============..===========================.=======================================",
"=======================================.===========================..============..===========================.=======================================",
"======================================..===========================..============..===========================..======================================",
"======================================.============================..============..============================.======================================",
"======================================.============================..============..============================.======================================",
"======================================.=======.......................============.......................=======.======================================",
"======================================.========..====================================================..========.======================================",
"======================================..========..==================================================..========..======================================",
"=======================================.=========..================================================..=========.=======================================",
"=======================================.==========..==============================================..==========.=======================================",
"=======================================.===========..============================================..===========.=======================================",
"=======================================.============..==========================================..============.=======================================",
"=======================================..============..========================================..============..=======================================",
"========================================.=============..======================================..=============.========================================",
"========================================.==============..====================================..==============.========================================",
"========================================.===============..==================================..===============.========================================",
"========================================..===============..================================..===============..========================================",
"=========================================.================..==============================..================.=========================================",
"=========================================.=================..============================..=================.=========================================",
"=========================================.==================..==========================..==================.=========================================",
"=========================================..==================..========================..==================..=========================================",
"==========================================.===================..======================..===================.==========================================",
"==========================================.====================..====================..====================.==========================================",
"==========================================..====================..==================..====================..==========================================",
"===========================================.=====================..================..=====================.===========================================",
"===========================================.======================..==============..======================.===========================================",
"===========================================..======================..============..======================..===========================================",
"============================================.=======================..==========..=======================.============================================",
"============================================..=======================..========..=======================..============================================",
"=============================================.========================..======..========================.=============================================",
"=============================================..========================..====..========================..=============================================",
"==============================================..========================..==..========================..==============================================",
"===============================================..========================....========================..===============================================",
"================================================..========================..========================..================================================",
"=================================================...==============================================...=================================================",
"===================================================...==========================================...===================================================",
"=====================================================....====================================....=====================================================",
"========================================================....==============================....========================================================",
"===========================================================.....======================.....===========================================================",
"===============================================================.....==============.....===============================================================",
"===================================================================......====......===================================================================",
"========================================================================......========================================================================",
"======================================================================================================================================================",
"======================================================================================================================================================",
"======================================================================================================================================================",
};
