/* XPM */
static char *test[] = {
/* columns rows colors chars-per-pixel */
"32 35 15 1",
"  c #000000",
". c #731810",
"X c #A52918",
"o c #FF5210",
"O c #D64221",
"+ c #FF8C10",
"@ c #FFBD29",
"# c #FFE739",
"$ c #FFBD4A",
"% c #FFFF63",
"& c #9C8C8C",
"* c #C6B5B5",
"= c #B0D8D0",
"- c #EFDEDE",
"; c #FFFFFF",
/* pixels */
"================================",
"================================",
"=============O====o=============",
"==============O==o#o============",
"==============oO=o@o============",
"==============ooOo+o============",
"==========o===o+o=o=============",
"=========o@o=Oo++o==============",
"=========ooo=o+@+o==============",
"==========o=O++@+oO=============",
"============o+@#@o+O============",
"===========O+@#;#+@+o===========",
"===========O+#;;;+#@o===========",
"===========o@;;;;@#o============",
"=== =======..........======= ===",
"== = = ==..XXOOooOOXX..== = = ==",
"= =    =.XXoOO    OOoXX.=    = =",
"==       XXXX %  % XXXX       ==",
"===    oX XXX      XXX Xo    ===",
"=====X o$X  -&    &-  X$o X=====",
"=====X o$$o  ;;;;;;  o$$o X=====",
"===== Xoo$$$ -;oo;- $$$ooX =====",
"===== OoX$Xoo ;;;; ooX$XoO =====",
"===== Xo o O  -;;-  O o oX =====",
"====== O O  =  --  =  O O ======",
"======= =  *= o  o =*  = =======",
"=========== * oooo * ===========",
"===========  oooooo  ===========",
"==========  XooooooX  ==========",
"========= X XooooooX X =========",
"========= OooOOOOOOooO =========",
"==========  oooooooo  ==========",
"============        ============",
"================================",
"================================"
};
